PathFileType	4	(X/Y/Z)	TVC_4_BWA_7_walk_RCNL2025.trc
DataRate	CameraRate	NumFrames	NumMarkers	Units	OrigDataRate	OrigDataStartFrame	OrigNumFrames
100	100	5	27	mm	100	297	474
Frame#	Time	R_Shoulder			L_Shoulder			C7			J_Notch			R_Elbow			L_Elbow			R_Wrist			L_Wrist			R_Asis			L_Asis			R_Psis			L_Psis			Sacral			Thoracic			Sternum			R_Thigh_Lateral			R_Knee_Lateral			R_Shank_Lateral			R_Ankle_Lateral			R_Heel			R_Toe			L_Thigh_Lateral			L_Knee_Lateral			L_Shank_Lateral			L_Ankle_Lateral			L_Heel			L_Toe		
		X1	Y1	Z1	X2	Y2	Z2	X3	Y3	Z3	X4	Y4	Z4	X5	Y5	Z5	X6	Y6	Z6	X7	Y7	Z7	X8	Y8	Z8	X9	Y9	Z9	X10	Y10	Z10	X11	Y11	Z11	X12	Y12	Z12	X13	Y13	Z13	X14	Y14	Z14	X15	Y15	Z15	X16	Y16	Z16	X17	Y17	Z17	X18	Y18	Z18	X19	Y19	Z19	X20	Y20	Z20	X21	Y21	Z21	X22	Y22	Z22	X23	Y23	Z23	X24	Y24	Z24	X25	Y25	Z25	X26	Y26	Z26	X27	Y27	Z27
297	2.96000000	698.616211	1298.623291	5.867422	723.625183	1323.840454	-373.390869	650.817322	1375.796753	-172.688538	793.685913	1254.583740	-191.761765	650.940491	984.222473	59.829613	692.090881	1002.904663	-461.087616	727.704254	765.839386	50.277304	824.342865	830.139191	-459.947281	718.985901	863.453247	-15.624660	681.528076	856.956116	-367.999817	562.208496	897.898132	-125.375900	555.713379	898.633240	-217.575150	558.960938	898.265686	-171.475525	570.407837	1129.344971	-183.612030	828.415283	1063.920044	-195.929733	827.831360	540.448853	7.251211	843.840515	451.687561	-39.340630	834.155640	285.687439	32.514919	833.121399	70.094757	-54.031303	787.704285	59.404797	-101.987328	960.559509	64.106140	-70.190369	691.986389	497.128784	-358.485291	678.023865	416.125671	-306.340912	650.150085	294.294556	-345.926758	585.424255	53.482109	-254.496979	539.073303	49.854797	-207.510681	719.478455	38.066761	-239.678635
298	2.97000000	707.592773	1297.810059	6.347739	733.511292	1323.406250	-372.814789	660.139282	1374.981567	-172.282074	803.070740	1253.785522	-191.203552	656.325195	984.109070	60.314827	704.127808	1002.628357	-461.570068	730.132050	764.733490	52.534375	839.132629	831.964417	-459.348679	728.549500	862.758972	-15.220010	689.793640	856.040527	-367.464783	571.597473	897.178345	-124.328972	564.718506	897.797241	-216.443375	568.157990	897.487793	-170.386173	579.669312	1128.527954	-183.357788	837.639221	1063.080444	-195.596786	833.783203	538.416687	8.062149	851.334778	450.305573	-39.033134	850.017761	283.234619	32.391079	863.371216	67.961266	-54.922447	819.124939	55.050442	-103.365509	991.529114	69.084145	-69.878014	697.018555	496.293915	-358.068237	682.422363	415.358063	-305.886963	653.016296	293.975922	-345.565460	585.602539	53.675125	-254.449844	539.198853	50.245888	-207.420761	719.562805	38.021782	-239.689819
299	2.98000000	716.645325	1296.883545	6.896516	743.336914	1322.858643	-372.185669	669.470276	1374.072632	-171.789642	812.479553	1252.913940	-190.611450	661.898682	983.907593	60.909897	715.908569	1002.235474	-461.884277	732.749207	763.622650	54.850319	853.565948	833.663666	-458.666916	738.275391	861.932678	-14.789879	698.105835	854.987610	-366.847351	581.114197	896.340881	-123.190628	573.832947	896.836487	-215.215576	577.473572	896.588684	-169.203102	588.989807	1127.592651	-182.981827	846.940613	1062.155029	-195.239914	839.435364	535.943237	9.103186	858.574890	448.700317	-38.709846	864.611084	281.075409	32.155094	891.798096	66.650856	-55.902840	848.754517	51.818005	-104.827438	1020.437317	74.306526	-69.765343	702.266602	495.363129	-357.578918	686.974548	414.522247	-305.364685	655.990479	293.614685	-345.141266	585.778198	53.885216	-254.383575	539.341736	50.668499	-207.309662	719.644287	37.977875	-239.692245
300	2.99000000	725.770691	1295.850098	7.520645	753.096375	1322.209717	-371.497955	678.809204	1373.084106	-171.203873	821.910645	1251.982666	-189.977371	667.691223	983.616028	61.617062	727.421143	1001.731628	-462.030548	735.591522	762.498535	57.216415	867.621429	835.226898	-457.907669	748.170349	860.989868	-14.331392	706.477417	853.802979	-366.149689	590.755005	895.402222	-121.966583	583.058655	895.765442	-213.899292	586.906830	895.583832	-167.932938	598.368164	1126.554077	-182.484268	856.316223	1061.155396	-194.852386	845.137939	533.198059	10.366999	865.767761	446.937592	-38.358341	878.247559	279.148376	31.888058	917.953064	65.954872	-56.940548	876.015564	49.532040	-106.287148	1046.855225	79.336571	-69.977654	707.753418	494.335785	-357.015503	691.673096	413.619049	-304.772461	659.082336	293.206696	-344.656891	585.951050	54.111519	-254.293274	539.504944	51.125790	-207.176956	719.721985	37.936474	-239.684052
301	3.00000000	734.965820	1294.721191	8.226802	762.784180	1321.474976	-370.746216	688.155273	1372.032837	-170.517899	831.362366	1251.008667	-189.293396	673.730530	983.236389	62.437519	738.655090	1001.126648	-462.009521	738.703613	761.359711	59.627655	881.277649	836.645660	-457.076965	758.235535	859.950378	-13.841031	714.925659	852.497070	-365.375336	600.514465	894.382751	-120.663948	592.395996	894.602722	-212.503845	596.455231	894.492737	-166.583897	607.802795	1125.430786	-181.865967	865.762878	1060.098145	-194.427628	851.251953	530.375122	11.801233	873.111267	445.084717	-37.974686	891.249146	277.414703	31.678089	941.453186	65.631165	-57.997265	900.403931	47.961269	-107.655304	1070.422241	83.727158	-70.606293	713.489563	493.213654	-356.380219	696.506165	412.653290	-304.110321	662.296082	292.751556	-344.116364	586.120972	54.356468	-254.174072	539.687866	51.623299	-207.019257	719.796082	37.899792	-239.664902
